<svg version="1.2" xmlns="http://www.w3.org/2000/svg" xmlns:xlink="http://www.w3.org/1999/xlink" overflow="visible" preserveAspectRatio="none" viewBox="0 0 24 24" width="31.794102679027" height="32.01077188607"><g><circle xmlns:default="http://www.w3.org/2000/svg" cx="12" cy="12" r="3.2" style="fill: rgb(119, 119, 119);" vector-effect="non-scaling-stroke"/><path xmlns:default="http://www.w3.org/2000/svg" d="M9 2L7.17 4H4c-1.1 0-2 .9-2 2v12c0 1.1.9 2 2 2h16c1.1 0 2-.9 2-2V6c0-1.1-.9-2-2-2h-3.17L15 2H9zm3 15c-2.76 0-5-2.24-5-5s2.24-5 5-5 5 2.24 5 5-2.24 5-5 5z" style="fill: rgb(119, 119, 119);" vector-effect="non-scaling-stroke"/></g></svg>